<svg id="_14.svg" data-name="14.svg" xmlns="http://www.w3.org/2000/svg" width="80" height="80" viewBox="0 0 80 80">
  <defs>
    <style>
      .cls-1 {
        fill: #ffbf00;
      }

      .cls-2 {
        fill-rule: evenodd;
      }
    </style>
  </defs>
  <circle class="cls-1" cx="40" cy="40" r="40"/>
  <path class="cls-2" d="M1098.44,358.533l-2.53-1.7c0.01-.291.02-0.585,0.02-0.881s-0.01-.593-0.02-0.886l2.52-1.707a1.256,1.256,0,0,0,.52-1.28,19.454,19.454,0,0,0-1.51-4.544,1.261,1.261,0,0,0-1.17-.713l-3.09.093a14.589,14.589,0,0,0-1.07-1.438l1.02-2.826a1.243,1.243,0,0,0-.34-1.348,20.5,20.5,0,0,0-3.94-2.8,1.232,1.232,0,0,0-1.35.1l-2.44,1.851a17.444,17.444,0,0,0-1.76-.556l-0.87-2.878a1.259,1.259,0,0,0-1.05-.878c-0.82-.1-1.65-0.125-2.43-0.142a20.566,20.566,0,0,0-2.43.154,1.244,1.244,0,0,0-1.05.885l-0.86,2.883a17.316,17.316,0,0,0-1.75.565l-2.45-1.84a1.251,1.251,0,0,0-1.36-.094,20.691,20.691,0,0,0-3.92,2.816,1.264,1.264,0,0,0-.33,1.351l1.03,2.82c-0.38.465-.73,0.947-1.06,1.444l-3.08-.075a1.343,1.343,0,0,0-1.17.72,19.947,19.947,0,0,0-1.49,4.547,1.243,1.243,0,0,0,.53,1.281l2.54,1.693c-0.02.292-.03,0.588-0.03,0.884s0.01,0.59.03,0.884l-2.52,1.709a1.25,1.25,0,0,0-.53,1.283,19.885,19.885,0,0,0,1.52,4.543,1.245,1.245,0,0,0,1.17.712l3.08-.093a16.426,16.426,0,0,0,1.07,1.437l-1.01,2.826a1.257,1.257,0,0,0,.33,1.348,20.49,20.49,0,0,0,3.94,2.8,1.241,1.241,0,0,0,1.35-.1l2.44-1.852a17.484,17.484,0,0,0,1.76.556l0.87,2.88a1.259,1.259,0,0,0,1.06.878,20.471,20.471,0,0,0,2.37.142h0.06a20.81,20.81,0,0,0,2.43-.154,1.244,1.244,0,0,0,1.04-.885l0.86-2.884a17.556,17.556,0,0,0,1.76-.566l2.45,1.84a1.244,1.244,0,0,0,1.35.095,20.418,20.418,0,0,0,3.92-2.817,1.261,1.261,0,0,0,.33-1.35l-1.03-2.822a14.944,14.944,0,0,0,1.06-1.441l3.09,0.076a1.191,1.191,0,0,0,1.16-.719,19.072,19.072,0,0,0,1.49-4.551A1.242,1.242,0,0,0,1098.44,358.533Zm-2.89,4.029-2.97-.072a1.312,1.312,0,0,0-1.1.612,14.66,14.66,0,0,1-1.66,2.248,1.249,1.249,0,0,0-.25,1.266l0.99,2.706a17.461,17.461,0,0,1-2.13,1.524l-2.35-1.768a1.252,1.252,0,0,0-1.24-.148,14.92,14.92,0,0,1-2.7.869,1.253,1.253,0,0,0-.94.865l-0.82,2.772c-0.45.036-.89,0.054-1.33,0.055-0.46,0-.87-0.015-1.33-0.047l-0.83-2.767a1.273,1.273,0,0,0-.94-0.861,14.534,14.534,0,0,1-2.71-.854,1.232,1.232,0,0,0-1.24.155l-2.35,1.779a18.3,18.3,0,0,1-2.13-1.513l0.97-2.711a1.249,1.249,0,0,0-.25-1.267,13.559,13.559,0,0,1-1.67-2.236,1.24,1.24,0,0,0-1.11-.607l-2.96.09a17.527,17.527,0,0,1-.82-2.426l2.43-1.637a1.249,1.249,0,0,0,.54-1.166c-0.05-.456-0.07-0.916-0.08-1.384a12.7,12.7,0,0,1,.07-1.387,1.249,1.249,0,0,0-.55-1.163l-2.43-1.624a17.536,17.536,0,0,1,.8-2.427l2.96,0.072a1.323,1.323,0,0,0,1.11-.612,14.224,14.224,0,0,1,1.66-2.253,1.246,1.246,0,0,0,.24-1.266l-0.99-2.7a18.9,18.9,0,0,1,2.13-1.524l2.35,1.766a1.251,1.251,0,0,0,1.25.148,15.015,15.015,0,0,1,2.7-.87,1.251,1.251,0,0,0,.94-0.865l0.82-2.769c0.44-.035.89-0.053,1.32-0.054a11.021,11.021,0,0,1,1.33.047l0.84,2.767a1.244,1.244,0,0,0,.94.859,14.73,14.73,0,0,1,2.7.855,1.263,1.263,0,0,0,1.25-.155l2.34-1.779a18.065,18.065,0,0,1,2.14,1.514l-0.98,2.706a1.262,1.262,0,0,0,.25,1.261,14.428,14.428,0,0,1,1.68,2.247,1.239,1.239,0,0,0,1.11.607l2.96-.089a17.5,17.5,0,0,1,.81,2.424l-2.42,1.636a1.234,1.234,0,0,0-.54,1.156c0.04,0.459.07,0.922,0.07,1.4s-0.02.936-.06,1.394a1.238,1.238,0,0,0,.55,1.155l2.42,1.625A17.447,17.447,0,0,1,1095.55,362.562ZM1079,349.753a6.247,6.247,0,1,0,6.25,6.247A6.26,6.26,0,0,0,1079,349.753Zm0,10a3.748,3.748,0,1,1,3.75-3.748A3.752,3.752,0,0,1,1079,359.748Zm10.5-7.793a1.249,1.249,0,1,0-2.33.9,8.942,8.942,0,0,1,.5,1.97,9.325,9.325,0,0,1,.08,1.174,8.75,8.75,0,1,1-8.75-8.746,8.651,8.651,0,0,1,3.28.638,1.25,1.25,0,1,0,.94-2.316A11.244,11.244,0,1,0,1090.25,356a10.9,10.9,0,0,0-.1-1.5A11.726,11.726,0,0,0,1089.5,351.955Z" transform="translate(-1039 -316)"/>
</svg>


