<svg id="_15.svg_" data-name="15.svg " xmlns="http://www.w3.org/2000/svg" width="80" height="80" viewBox="0 0 80 80">
  <defs>
    <style>
      .cls-1 {
        fill: #ffbf00;
      }

      .cls-2 {
        fill-rule: evenodd;
      }
    </style>
  </defs>
  <circle class="cls-1" cx="40" cy="40" r="40"/>
  <path class="cls-2" d="M1437.3,365.307a1.246,1.246,0,1,0-2.07,1.386l2.49,3.751a1.205,1.205,0,0,0,.29.293c0.01,0.009.02,0.022,0.03,0.03a0.19,0.19,0,0,0,.05.027,1.459,1.459,0,0,0,.23.116c0.04,0.013.07,0.028,0.1,0.038a1.217,1.217,0,0,0,.33.05c0.01,0,.01,0,0.01,0h0a1.262,1.262,0,0,0,.5-0.118,0.666,0.666,0,0,0,.1-0.049,1.075,1.075,0,0,0,.1-0.043,1.13,1.13,0,0,0,.24-0.249,0.559,0.559,0,0,0,.08-0.064l0.03-.039h0l6.21-8.711a1.248,1.248,0,1,0-2.03-1.453l-5.19,7.276Zm8.95,0.693a1.242,1.242,0,0,0-1.24,1.25,6.245,6.245,0,1,1-6.25-6.249,1.251,1.251,0,0,0,0-2.5,8.75,8.75,0,1,0,8.74,8.75A1.25,1.25,0,0,0,1446.25,366Zm23.73-21.243v-0.006a1.428,1.428,0,0,0-.08-0.414,0.343,0.343,0,0,0-.04-0.088,1.25,1.25,0,0,0-.22-0.354,0.122,0.122,0,0,1-.04-0.03,2.1,2.1,0,0,0-.18-0.157,1.459,1.459,0,0,0-.16-0.077,0.137,0.137,0,0,0-.04-0.028l-17.48-7.5a0.038,0.038,0,0,1-.01,0,1.325,1.325,0,0,0-.37-0.079c-0.04,0-.07-0.02-0.11-0.02a1.14,1.14,0,0,0-.18.034,1.29,1.29,0,0,0-.3.065s-0.01,0-.01,0l-8.71,3.735s-0.01,0-.01,0l-8.76,3.76a0.106,0.106,0,0,0-.04.026,1.316,1.316,0,0,0-.16.079,0.861,0.861,0,0,0-.18.157c-0.01.012-.03,0.019-0.04,0.03a1.283,1.283,0,0,0-.23.354l-0.03.088a1.159,1.159,0,0,0-.08.414V356a1.25,1.25,0,0,0,2.5,0v-9.354l14.98,6.428V372.25a1.284,1.284,0,0,0,.09.434l0.03,0.089a1.486,1.486,0,0,0,.23.342c0.02,0.018.04,0.032,0.06,0.049a1.187,1.187,0,0,0,.15.13c0.04,0.027.09,0.04,0.13,0.062a0.875,0.875,0,0,0,.13.057,1.173,1.173,0,0,0,.92-0.014h0l17.48-7.5a1.251,1.251,0,0,0,.76-1.149V344.757Zm-9.99,2.385L1445.68,341l5.57-2.391,14.31,6.14Zm-23.05-2.391,5.57-2.391,14.31,6.141-5.57,2.391Zm30.54,19.175-14.98,6.429v-17.28l14.98-6.428v17.279Zm-7.24-.217a1.265,1.265,0,0,0,.48-0.1l3.49-1.459h0.01a1.208,1.208,0,0,0,.4-0.274,0.867,0.867,0,0,0,.13-0.19,1.655,1.655,0,0,0,.14-0.209,1.294,1.294,0,0,0,.09-0.479h0V357.25a1.245,1.245,0,1,0-2.49,0v2.917l-2.73,1.139A1.25,1.25,0,0,0,1460.24,363.709Z" transform="translate(-1410 -316)"/>
</svg>


