<svg id="_16.svg_" data-name="16.svg " xmlns="http://www.w3.org/2000/svg" width="80" height="80" viewBox="0 0 80 80">
  <defs>
    <style>
      .cls-1 {
        fill: #ffbf00;
      }

      .cls-2 {
        fill-rule: evenodd;
      }
    </style>
  </defs>
  <circle class="cls-1" cx="40" cy="40" r="40"/>
  <path class="cls-2" d="M1838.51,341H1836v-1.249a1.25,1.25,0,0,0-1.25-1.25h-4.44a4.974,4.974,0,0,0-8.63,0h-4.44a1.25,1.25,0,0,0-1.25,1.25V341h-2.5a2.511,2.511,0,0,0-2.51,2.5v30a2.51,2.51,0,0,0,2.51,2.5h25.02a2.5,2.5,0,0,0,2.5-2.5v-30A2.5,2.5,0,0,0,1838.51,341Zm-20.02,0h3.98a1.255,1.255,0,0,0,1.18-.83,2.482,2.482,0,0,1,4.69,0,1.253,1.253,0,0,0,1.18.83h3.98v2.5h-15.01V341Zm20.02,32.5h-25.02v-30h2.5v1.25a1.25,1.25,0,0,0,1.25,1.25h17.51a1.25,1.25,0,0,0,1.25-1.25V343.5h2.51v30Zm-3.76-22.5h-6.25a1.25,1.25,0,1,0,0,2.5h6.25A1.25,1.25,0,1,0,1834.75,351Zm0,7.5h-6.25a1.25,1.25,0,0,0,0,2.5h6.25A1.25,1.25,0,0,0,1834.75,358.5Zm0,7.5h-6.25a1.25,1.25,0,0,0,0,2.5h6.25A1.25,1.25,0,0,0,1834.75,366Zm15.02-21.249v-2.5a1.253,1.253,0,0,0-1.26-1.25h-2.5a1.25,1.25,0,0,0-1.25,1.25v2.5a1.249,1.249,0,0,0-1.25,1.25V367.25a1.25,1.25,0,0,0,1.25,1.25V371a1.25,1.25,0,0,0,1.25,1.25v2.5a1.25,1.25,0,0,0,2.5,0v-2.5a1.253,1.253,0,0,0,1.26-1.25v-2.5a1.25,1.25,0,0,0,1.25-1.25V346A1.249,1.249,0,0,0,1849.77,344.751Zm-3.76,2.5h2.5V366h-2.5V347.25ZM1822.49,349l-2.88,3.847-1.49-1.481a1.251,1.251,0,1,0-1.77,1.767l2.51,2.5c0.02,0.022.05,0.03,0.07,0.05s0.04,0.048.06,0.066a1.439,1.439,0,0,0,.19.1,0.791,0.791,0,0,0,.13.067,1.218,1.218,0,0,0,.43.084h0a1.207,1.207,0,0,0,.51-0.118,1.57,1.57,0,0,0,.15-0.1,1.52,1.52,0,0,0,.23-0.152c0.02-.025.03-0.058,0.05-0.085s0.04-.027.06-0.049l3.75-5a1.237,1.237,0,0,0-.25-1.749A1.251,1.251,0,0,0,1822.49,349Zm0,7.5-2.88,3.848-1.49-1.482a1.251,1.251,0,0,0-1.77,1.768l2.51,2.5c0.02,0.021.05,0.03,0.07,0.05s0.04,0.047.06,0.066a1.439,1.439,0,0,0,.19.1,0.791,0.791,0,0,0,.13.067,1.218,1.218,0,0,0,.43.084h0a1.207,1.207,0,0,0,.51-0.118c0.05-.024.1-0.065,0.15-0.1a1.6,1.6,0,0,0,.23-0.152c0.02-.026.03-0.058,0.05-0.085s0.04-.027.06-0.049l3.75-5a1.237,1.237,0,0,0-.25-1.749A1.252,1.252,0,0,0,1822.49,356.5Zm0,7.5-2.88,3.847-1.49-1.481a1.251,1.251,0,0,0-1.77,1.767l2.51,2.5c0.02,0.021.05,0.029,0.07,0.05s0.04,0.047.06,0.065a1.58,1.58,0,0,0,.19.1,0.718,0.718,0,0,0,.13.066,1.2,1.2,0,0,0,.43.085h0a1.222,1.222,0,0,0,.51-0.118,1.584,1.584,0,0,0,.15-0.1,1.511,1.511,0,0,0,.23-0.151c0.02-.026.03-0.058,0.05-0.085s0.04-.028.06-0.05l3.75-5a1.237,1.237,0,0,0-.25-1.749A1.252,1.252,0,0,0,1822.49,364Z" transform="translate(-1790 -316)"/>
</svg>


